<?xml version="1.0" standalone="no"?>
<!DOCTYPE svg PUBLIC "-//W3C//DTD SVG 20010904//EN"
 "http://www.w3.org/TR/2001/REC-SVG-20010904/DTD/svg10.dtd">
<svg version="1.0" xmlns="http://www.w3.org/2000/svg"
 width="512.000000pt" height="512.000000pt" viewBox="0 0 512.000000 512.000000"
 preserveAspectRatio="xMidYMid meet">
<metadata>
Created by potrace 1.14, written by Peter Selinger 2001-2017
</metadata>
<g transform="translate(0.000000,512.000000) scale(0.100000,-0.100000)"
fill="#000000" stroke="none">
<path d="M2219 5116 c-2 -2 -24 -6 -49 -9 -163 -19 -367 -96 -519 -195 -80
-53 -94 -70 -88 -113 4 -33 0 -40 -67 -107 -70 -69 -72 -71 -114 -65 -37 5
-45 2 -72 -27 -49 -52 -138 -192 -190 -298 -79 -159 -135 -349 -166 -557 -3
-22 -7 -186 -9 -365 -2 -179 -4 -328 -4 -332 -1 -5 -16 -8 -33 -8 -18 0 -70
-9 -114 -20 -304 -72 -535 -305 -609 -613 -23 -92 -23 -96 -21 -902 2 -445 5
-821 9 -834 25 -94 43 -144 69 -201 101 -215 291 -373 532 -443 70 -21 89 -21
1441 -24 754 -2 1380 -1 1393 2 13 3 32 20 42 38 l19 33 101 -1 100 0 20 -32
c11 -18 31 -35 45 -39 48 -12 336 3 405 21 255 68 473 263 564 506 53 142 53
144 53 989 0 720 -1 792 -18 872 -66 315 -317 566 -634 633 -39 8 -83 15 -100
15 l-30 0 0 298 c-1 340 -6 413 -36 557 -6 28 -13 61 -15 75 -12 62 -81 245
-128 341 -171 344 -452 607 -776 726 -95 35 -118 42 -157 49 -16 3 -46 10 -68
16 -37 10 -766 23 -776 14z m661 -890 c75 -13 202 -80 269 -142 124 -114 199
-263 226 -447 8 -52 10 -571 2 -583 -7 -12 -1622 -13 -1633 -1 -12 12 -7 546
6 618 50 281 255 511 493 554 69 12 566 13 637 1z"/>
</g>
</svg>
